<?xml version="1.0" encoding="UTF-8" ?>
<!DOCTYPE svg PUBLIC "-//W3C//DTD SVG 1.1//EN" "http://www.w3.org/Graphics/SVG/1.1/DTD/svg11.dtd">
<svg width="1030pt" height="1029pt" viewBox="0 0 1030 1029" version="1.1" xmlns="http://www.w3.org/2000/svg">
<g id="#c41a1bff">
<path fill="#c41a1b" opacity="1.00" d=" M 502.79 0.00 L 526.43 0.00 C 570.26 1.19 613.99 7.52 656.16 19.61 C 729.38 40.39 797.75 77.88 854.81 128.24 C 901.75 169.53 941.10 219.44 970.24 274.75 C 998.04 327.37 1016.50 384.89 1024.56 443.85 C 1037.06 534.98 1025.11 629.48 989.19 714.25 C 960.04 783.55 915.37 846.23 859.54 896.56 C 806.70 944.31 743.89 981.02 676.20 1003.23 C 628.23 1019.22 577.84 1027.56 527.33 1029.00 L 502.44 1029.00 C 446.43 1027.48 390.61 1017.23 338.00 997.89 C 281.15 977.11 228.07 946.13 181.96 906.93 C 128.90 861.97 85.12 806.14 54.08 743.91 C 15.39 666.58 -2.99 579.34 0.73 492.99 C 3.69 418.45 23.16 344.60 57.52 278.37 C 90.03 215.44 135.73 159.37 190.76 114.78 C 253.59 63.66 328.69 27.70 407.98 11.06 C 439.15 4.42 470.95 0.98 502.79 0.00 M 418.97 35.93 C 398.73 39.32 379.43 47.30 362.09 58.20 C 338.44 73.09 318.41 93.26 302.23 115.96 C 291.18 116.60 279.90 116.72 269.30 120.26 C 261.58 122.76 254.86 127.52 248.53 132.47 C 225.84 150.71 211.16 177.76 205.60 206.12 C 202.99 220.28 201.35 234.66 201.50 249.07 C 200.97 283.17 208.77 317.81 226.30 347.26 C 194.68 393.93 170.35 446.30 160.44 502.05 C 156.50 522.59 156.32 543.69 151.76 564.14 C 149.04 576.93 147.58 589.97 147.05 603.03 C 146.13 625.87 147.39 648.86 151.43 671.38 C 171.56 782.34 255.25 879.12 361.95 915.45 C 380.12 921.42 398.81 926.44 417.96 927.68 C 434.61 929.00 451.41 929.14 467.99 926.94 C 492.09 923.87 516.13 915.09 534.24 898.46 C 558.18 900.07 582.45 899.46 605.98 894.42 C 633.48 888.71 660.07 876.12 679.77 855.79 C 688.99 845.48 692.84 831.47 702.56 821.55 C 714.42 810.59 724.37 797.78 734.12 784.95 C 748.91 781.60 764.61 782.51 778.87 776.80 C 790.54 771.68 801.39 764.53 810.28 755.36 C 827.90 737.91 838.61 712.92 836.54 687.95 C 836.58 674.82 846.45 664.63 848.89 652.09 C 852.29 636.65 864.72 625.21 868.63 609.96 C 871.61 598.33 870.04 586.15 867.55 574.58 C 873.48 567.12 879.27 559.52 884.48 551.53 C 890.74 542.57 895.76 532.83 901.70 523.67 C 911.69 508.70 924.63 495.81 939.14 485.21 C 947.00 479.73 954.89 473.80 964.26 471.18 C 970.71 469.09 977.55 467.80 983.45 464.32 C 985.94 461.46 987.11 457.71 988.04 454.10 C 990.28 444.10 987.86 433.96 986.97 423.97 C 987.88 418.68 989.02 413.39 988.78 407.99 C 989.17 397.48 985.96 387.21 981.16 377.99 C 980.86 369.27 978.72 360.48 973.76 353.21 C 963.57 337.79 945.94 328.72 928.16 325.30 C 886.97 316.58 843.95 321.34 804.02 333.69 C 797.29 301.75 775.05 273.91 746.32 258.78 C 730.35 250.21 712.14 245.94 694.02 246.49 C 661.62 245.69 629.21 264.59 615.11 293.99 C 621.74 301.67 628.95 308.83 635.60 316.51 C 643.98 325.91 650.67 336.67 656.23 347.94 C 667.03 369.10 674.06 392.31 675.92 416.03 C 677.56 436.78 674.91 457.97 667.32 477.40 C 656.75 473.33 645.73 470.39 634.47 469.04 C 643.78 454.88 642.37 437.19 642.00 421.06 C 642.61 395.98 630.55 371.48 611.68 355.25 C 599.17 343.18 582.94 335.56 566.09 331.83 C 548.09 327.64 529.47 327.76 511.13 328.81 C 510.63 323.66 509.68 318.57 509.10 313.42 C 514.65 308.85 520.24 304.00 523.79 297.63 C 526.45 292.93 526.68 287.37 526.62 282.10 C 525.92 273.73 519.85 267.37 515.20 260.85 C 534.90 257.34 554.98 257.60 574.81 255.25 C 589.44 253.30 604.55 250.39 617.10 242.17 C 630.61 233.39 640.03 219.27 644.69 203.99 C 651.23 182.47 649.42 158.24 638.64 138.37 C 630.96 124.15 617.97 112.97 602.90 107.21 C 585.49 100.90 566.55 102.43 548.54 104.75 C 542.10 75.00 519.52 49.43 490.90 39.18 C 475.91 33.96 459.80 33.34 444.07 33.87 C 435.69 34.34 427.25 34.39 418.97 35.93 Z" />
<path fill="#c41a1b" opacity="1.00" d=" M 426.01 62.96 C 442.77 59.69 460.58 58.93 476.96 64.45 C 493.65 69.96 508.81 81.30 517.12 96.99 C 523.96 109.63 524.51 124.98 520.40 138.59 C 515.10 156.23 503.24 171.77 487.88 181.88 C 481.10 186.51 473.79 190.25 466.74 194.42 C 483.26 197.28 500.22 190.56 512.15 179.20 C 520.98 171.31 526.96 160.95 532.63 150.70 C 535.80 145.11 539.51 139.27 545.55 136.46 C 560.84 129.28 578.96 127.05 595.10 132.73 C 605.68 136.36 615.03 143.81 620.31 153.74 C 628.46 168.84 628.02 188.34 618.84 202.89 C 610.80 215.23 597.76 223.57 583.95 228.13 C 565.83 234.08 546.65 235.13 527.85 237.43 C 502.12 239.68 475.29 246.48 455.79 264.35 C 447.41 261.27 438.66 258.75 429.65 258.97 C 434.53 264.17 439.86 268.92 444.87 274.00 C 443.71 278.18 442.53 282.35 441.39 286.53 C 425.77 279.02 408.15 276.99 391.00 277.28 C 389.20 277.18 387.16 277.63 385.69 276.35 C 379.49 272.00 372.84 267.15 364.94 267.06 C 357.72 267.62 350.52 269.53 344.30 273.31 C 331.15 281.20 321.69 294.23 307.54 300.61 C 294.48 306.63 282.70 314.97 270.95 323.17 C 284.86 300.10 306.52 282.26 330.72 270.77 C 358.52 257.45 389.92 252.23 420.59 254.59 C 402.72 247.38 382.82 246.64 363.93 249.41 C 346.92 252.05 330.42 257.58 314.91 264.99 C 288.27 277.89 266.32 299.49 251.50 324.98 C 235.08 296.69 226.39 263.71 228.19 230.97 C 229.15 214.13 233.03 197.40 240.09 182.06 C 243.92 173.75 248.43 165.53 255.17 159.20 C 266.78 148.04 282.83 142.26 298.78 141.66 C 293.42 157.69 289.52 174.41 289.52 191.39 C 298.72 174.76 307.27 157.71 317.84 141.87 C 326.05 129.36 335.33 117.52 345.95 106.97 C 368.21 85.77 395.60 69.04 426.01 62.96 Z" />
<path fill="#c41a1b" opacity="1.00" d=" M 555.51 451.74 C 563.84 449.55 572.42 446.97 581.12 448.39 C 596.05 450.42 609.01 459.10 620.17 468.75 C 608.37 469.28 595.71 469.97 585.57 476.72 C 581.09 479.95 576.21 484.12 575.84 490.06 C 575.47 497.28 579.19 503.80 582.28 510.07 C 562.64 517.81 540.59 519.35 520.12 514.17 C 503.32 510.07 487.60 501.53 475.22 489.44 C 500.89 474.77 526.89 459.87 555.51 451.74 Z" />
<path fill="#c41a1b" opacity="1.00" d=" M 380.72 508.33 C 398.40 507.72 416.10 505.23 432.88 499.45 C 445.09 511.72 455.42 525.96 462.53 541.77 C 433.80 534.66 406.82 522.03 380.72 508.33 Z" />
<path fill="#c41a1b" opacity="1.00" d=" M 365.66 533.06 C 379.29 542.34 392.76 552.04 407.72 559.11 C 428.35 569.35 451.81 572.01 472.36 582.45 C 487.81 590.48 501.82 601.90 511.33 616.61 C 517.43 625.40 521.12 636.21 519.77 646.99 C 518.94 654.38 514.88 661.57 508.23 665.20 C 497.99 671.97 484.88 672.60 473.24 669.63 C 456.12 665.32 440.54 656.14 427.15 644.80 C 393.89 616.67 373.24 575.58 365.66 533.06 Z" />
<path fill="#c41a1b" opacity="1.00" d=" M 597.16 536.08 C 600.19 535.04 603.57 538.97 601.70 541.79 C 599.76 545.76 593.85 549.23 589.95 545.94 C 588.69 541.26 592.98 537.20 597.16 536.08 Z" />
<path fill="#c41a1b" opacity="1.00" d=" M 474.34 577.15 C 487.25 576.46 500.06 574.40 512.99 574.00 C 518.53 574.14 524.33 573.30 529.60 575.46 C 554.81 584.09 576.05 605.30 582.47 631.44 C 584.47 638.61 582.61 647.08 576.97 652.13 C 573.75 655.11 569.21 655.78 565.01 655.99 C 555.33 656.39 545.79 653.30 537.48 648.50 C 532.97 645.94 531.04 640.79 529.60 636.10 C 526.91 626.80 523.38 617.48 517.10 609.97 C 505.63 595.81 489.51 586.74 474.34 577.15 Z" />
</g>
<g id="#ffffffff">
<path fill="#ffffff" opacity="1.00" d=" M 418.97 35.93 C 427.25 34.39 435.69 34.34 444.07 33.87 C 459.80 33.34 475.91 33.96 490.90 39.18 C 519.52 49.43 542.10 75.00 548.54 104.75 C 566.55 102.43 585.49 100.90 602.90 107.21 C 617.97 112.97 630.96 124.15 638.64 138.37 C 649.42 158.24 651.23 182.47 644.69 203.99 C 640.03 219.27 630.61 233.39 617.10 242.17 C 604.55 250.39 589.44 253.30 574.81 255.25 C 554.98 257.60 534.90 257.34 515.20 260.85 C 519.85 267.37 525.92 273.73 526.62 282.10 C 526.68 287.37 526.45 292.93 523.79 297.63 C 520.24 304.00 514.65 308.85 509.10 313.42 C 509.68 318.57 510.63 323.66 511.13 328.81 C 529.47 327.76 548.09 327.64 566.09 331.83 C 582.94 335.56 599.17 343.18 611.68 355.25 C 630.55 371.48 642.61 395.98 642.00 421.06 C 642.37 437.19 643.78 454.88 634.47 469.04 C 645.73 470.39 656.75 473.33 667.32 477.40 C 674.91 457.97 677.56 436.78 675.92 416.03 C 674.06 392.31 667.03 369.10 656.23 347.94 C 650.67 336.67 643.98 325.91 635.60 316.51 C 628.95 308.83 621.74 301.67 615.11 293.99 C 629.21 264.59 661.62 245.69 694.02 246.49 C 712.14 245.94 730.35 250.21 746.32 258.78 C 775.05 273.91 797.29 301.75 804.02 333.69 C 843.95 321.34 886.97 316.58 928.16 325.30 C 945.94 328.72 963.57 337.79 973.76 353.21 C 978.72 360.48 980.86 369.27 981.16 377.99 C 985.96 387.21 989.17 397.48 988.78 407.99 C 989.02 413.39 987.88 418.68 986.97 423.97 C 987.86 433.96 990.28 444.10 988.04 454.10 C 987.11 457.71 985.94 461.46 983.45 464.32 C 977.55 467.80 970.71 469.09 964.26 471.18 C 954.89 473.80 947.00 479.73 939.14 485.21 C 924.63 495.81 911.69 508.70 901.70 523.67 C 895.76 532.83 890.74 542.57 884.48 551.53 C 879.27 559.52 873.48 567.12 867.55 574.58 C 870.04 586.15 871.61 598.33 868.63 609.96 C 864.72 625.21 852.29 636.65 848.89 652.09 C 846.45 664.63 836.58 674.82 836.54 687.95 C 838.61 712.92 827.90 737.91 810.28 755.36 C 801.39 764.53 790.54 771.68 778.87 776.80 C 764.61 782.51 748.91 781.60 734.12 784.95 C 724.37 797.78 714.42 810.59 702.56 821.55 C 692.84 831.47 688.99 845.48 679.77 855.79 C 660.07 876.12 633.48 888.71 605.98 894.42 C 582.45 899.46 558.18 900.07 534.24 898.46 C 516.13 915.09 492.09 923.87 467.99 926.94 C 451.41 929.14 434.61 929.00 417.96 927.68 C 398.81 926.44 380.12 921.42 361.95 915.45 C 255.25 879.12 171.56 782.34 151.43 671.38 C 147.39 648.86 146.13 625.87 147.05 603.03 C 147.58 589.97 149.04 576.93 151.76 564.14 C 156.32 543.69 156.50 522.59 160.44 502.05 C 170.35 446.30 194.68 393.93 226.30 347.26 C 208.77 317.81 200.97 283.17 201.50 249.07 C 201.35 234.66 202.99 220.28 205.60 206.12 C 211.16 177.76 225.84 150.71 248.53 132.47 C 254.86 127.52 261.58 122.76 269.30 120.26 C 279.90 116.72 291.18 116.60 302.23 115.96 C 318.41 93.26 338.44 73.09 362.09 58.20 C 379.43 47.30 398.73 39.32 418.97 35.93 M 377.63 63.76 C 349.07 78.98 324.77 102.01 307.77 129.54 C 301.18 128.88 294.54 128.89 287.93 129.09 C 275.92 129.66 264.70 135.09 255.15 142.11 C 237.32 155.78 226.49 176.42 219.28 197.27 C 202.31 247.52 211.12 304.80 239.45 349.26 C 205.64 397.32 180.15 451.98 169.87 510.07 C 167.26 523.59 166.63 537.36 164.86 550.99 C 163.65 561.49 160.73 571.70 159.50 582.19 C 154.77 617.56 156.77 653.84 165.26 688.49 C 175.38 729.28 194.36 767.74 219.88 801.09 C 261.45 855.50 320.83 897.03 387.58 913.59 C 405.35 917.94 423.58 921.04 441.92 920.51 C 473.50 920.26 506.68 911.37 529.81 888.86 C 565.64 893.51 603.12 890.15 636.29 875.21 C 652.49 867.64 668.34 856.98 677.03 840.88 C 689.78 815.87 714.80 799.79 727.11 774.49 C 738.75 775.13 750.62 775.79 762.05 773.00 C 776.09 769.16 789.36 762.03 799.70 751.70 C 819.38 732.73 829.93 704.21 825.79 677.02 C 831.41 667.68 836.02 657.67 838.77 647.10 C 839.62 643.93 839.97 640.56 841.77 637.74 C 848.01 626.44 857.10 616.11 858.79 602.85 C 861.06 593.09 855.69 584.07 851.25 575.82 C 873.84 556.37 883.93 527.21 902.74 504.72 C 922.05 483.65 945.76 464.58 974.35 458.57 C 980.62 448.42 976.79 436.08 973.50 425.60 C 977.30 418.02 979.11 409.19 977.14 400.83 C 976.00 395.07 972.81 390.01 968.99 385.66 C 969.13 381.74 969.63 377.76 968.82 373.87 C 966.70 360.94 957.19 349.96 945.35 344.76 C 933.68 339.83 921.36 336.57 908.85 334.68 C 870.21 329.02 830.66 336.87 794.94 351.85 C 793.01 313.90 766.06 279.85 731.32 265.78 C 712.21 257.85 690.43 256.57 670.59 262.50 C 653.47 267.90 639.35 280.20 628.74 294.38 C 653.09 317.61 671.05 347.43 680.20 379.82 C 691.15 417.84 689.33 460.05 671.86 495.86 C 655.19 485.94 635.89 478.27 616.15 480.79 C 605.05 481.98 592.63 484.45 585.61 494.05 C 596.03 513.03 610.58 529.92 617.23 550.81 C 597.77 559.48 576.00 561.37 554.94 560.12 C 561.03 554.71 568.05 550.52 574.48 545.56 C 581.84 540.17 588.33 532.48 588.92 522.99 C 576.14 524.07 563.87 528.29 551.12 529.59 C 543.05 530.58 534.92 529.72 526.89 528.76 C 499.83 525.10 474.04 510.19 458.87 487.26 C 481.74 474.93 503.56 460.50 527.62 450.49 C 544.76 443.33 563.30 438.74 581.98 439.60 C 599.50 441.00 614.15 451.76 627.69 462.03 C 631.27 449.39 633.20 436.17 632.17 423.04 C 631.12 405.75 625.13 388.48 613.73 375.27 C 602.36 361.61 586.90 351.62 570.05 346.14 C 547.18 338.64 522.18 338.31 498.91 344.20 C 500.10 336.89 500.67 329.27 498.62 322.06 C 496.71 314.48 491.04 308.31 484.40 304.47 C 474.33 299.39 462.75 301.21 451.96 301.80 C 451.93 293.88 452.97 285.40 457.85 278.87 C 467.92 266.51 482.74 258.94 497.98 255.03 C 524.18 248.23 551.57 250.20 578.12 245.65 C 592.80 243.18 607.67 238.08 618.69 227.70 C 641.60 204.29 644.00 163.45 623.06 138.03 C 615.36 128.17 604.51 120.91 592.53 117.38 C 575.11 112.14 555.73 114.04 539.61 122.42 C 537.30 84.87 506.04 52.12 469.14 46.40 C 437.80 41.84 405.42 48.94 377.63 63.76 M 457.46 298.30 C 464.65 295.53 471.19 291.08 478.79 289.38 C 482.99 288.36 487.64 288.50 491.54 290.51 C 495.93 294.39 499.21 299.33 502.88 303.87 C 514.64 300.71 519.02 283.99 510.70 275.31 C 506.19 270.62 499.11 270.94 493.17 271.68 C 477.81 273.98 464.85 284.98 457.46 298.30 M 555.51 451.74 C 526.89 459.87 500.89 474.77 475.22 489.44 C 487.60 501.53 503.32 510.07 520.12 514.17 C 540.59 519.35 562.64 517.81 582.28 510.07 C 579.19 503.80 575.47 497.28 575.84 490.06 C 576.21 484.12 581.09 479.95 585.57 476.72 C 595.71 469.97 608.37 469.28 620.17 468.75 C 609.01 459.10 596.05 450.42 581.12 448.39 C 572.42 446.97 563.84 449.55 555.51 451.74 M 597.16 536.08 C 592.98 537.20 588.69 541.26 589.95 545.94 C 593.85 549.23 599.76 545.76 601.70 541.79 C 603.57 538.97 600.19 535.04 597.16 536.08 Z" />
<path fill="#ffffff" opacity="1.00" d=" M 328.33 314.33 C 336.76 304.27 348.62 296.50 361.88 295.13 C 386.95 293.08 412.86 296.04 436.00 306.27 C 425.34 311.38 413.67 307.09 402.64 306.07 C 415.22 314.61 431.26 316.17 445.94 313.61 C 440.75 320.26 437.08 327.92 434.14 335.79 C 427.71 329.79 421.48 323.58 414.90 317.76 C 415.38 324.94 418.47 331.92 417.70 339.14 C 413.99 334.31 409.98 329.67 405.35 325.69 C 399.87 321.07 393.05 318.24 386.02 317.05 C 376.67 315.48 367.31 317.81 357.98 318.30 C 367.26 314.37 376.96 311.51 386.18 307.45 C 374.86 305.81 363.08 308.42 353.37 314.40 C 335.97 324.91 324.29 344.58 324.02 364.99 C 323.89 376.09 328.11 386.79 334.14 395.94 C 345.12 411.73 366.89 419.32 385.08 412.47 C 386.28 413.66 387.47 414.85 388.67 416.05 C 387.37 417.25 386.12 418.50 385.03 419.89 C 375.00 421.58 365.90 415.72 356.07 415.07 C 334.09 413.05 310.75 416.50 292.06 428.88 C 282.47 435.09 274.63 444.16 270.60 454.92 C 266.13 466.31 265.95 479.55 271.21 490.72 C 276.36 503.56 287.44 512.52 297.88 520.98 C 294.61 520.86 290.41 523.21 287.92 520.11 C 280.57 512.75 272.98 505.29 268.10 495.98 C 261.55 482.96 260.35 468.21 256.45 454.36 C 253.38 468.58 253.17 483.16 253.10 497.64 C 240.15 476.59 234.12 452.15 230.09 428.00 C 226.47 432.62 223.83 437.88 221.09 443.04 C 201.19 481.80 195.95 527.36 204.12 569.97 C 211.73 608.63 226.47 645.95 247.91 679.03 C 254.96 689.47 261.75 700.28 271.04 708.91 C 285.84 723.23 305.17 732.59 325.41 736.11 C 324.69 731.76 323.41 727.54 322.34 723.27 C 324.75 722.69 327.12 721.96 329.45 721.11 C 323.69 716.51 317.37 712.67 311.68 707.99 C 314.70 704.87 317.94 701.98 320.95 698.85 C 317.54 695.98 314.06 693.21 310.37 690.71 C 309.76 694.52 309.17 698.33 308.56 702.15 C 301.63 694.77 294.99 687.14 287.96 679.86 C 289.81 687.31 292.72 694.44 294.45 701.92 C 283.72 691.99 275.21 679.87 267.62 667.44 C 257.08 649.89 249.09 630.94 242.28 611.67 C 230.44 576.88 226.09 538.85 234.16 502.72 C 238.72 506.87 242.81 511.50 247.58 515.41 C 260.74 526.65 275.94 535.21 291.70 542.21 C 291.97 564.89 294.00 587.88 301.63 609.39 C 303.75 615.02 305.76 620.78 309.04 625.87 C 307.81 599.18 303.54 572.69 303.01 545.94 C 308.94 546.96 314.84 548.15 320.73 549.39 C 322.73 570.37 327.38 591.33 336.78 610.31 C 339.32 615.29 341.87 620.33 345.37 624.74 C 340.43 600.71 334.05 576.64 334.47 551.91 C 339.89 570.62 344.13 590.19 354.83 606.78 C 355.79 600.39 355.84 593.91 356.91 587.55 C 361.29 597.31 365.15 607.32 370.26 616.75 C 375.04 626.23 380.68 635.23 385.92 644.45 C 380.56 641.88 375.75 638.32 370.37 635.80 C 376.63 649.34 385.51 661.53 394.98 672.99 C 400.44 679.41 406.14 685.65 412.39 691.31 C 417.67 699.16 423.07 706.96 429.33 714.07 L 429.26 714.27 C 426.99 720.04 425.60 726.09 423.78 732.01 C 397.55 730.62 376.00 713.89 351.74 705.92 C 343.96 700.86 337.84 693.61 329.89 688.78 C 337.15 704.97 348.04 719.93 350.76 737.83 C 351.64 741.57 349.68 745.44 346.90 747.88 C 341.90 751.91 335.01 752.83 328.83 751.74 C 310.56 749.54 293.95 740.42 279.61 729.29 C 251.61 708.27 231.57 678.36 217.05 646.88 C 209.43 630.18 203.28 612.81 198.26 595.16 C 191.02 568.14 189.09 539.66 193.09 511.96 C 196.12 492.35 200.98 473.04 206.86 454.10 C 219.32 414.88 238.08 376.95 266.02 346.40 C 265.07 351.43 262.35 355.83 260.46 360.52 C 255.59 371.99 250.58 383.45 246.98 395.40 C 257.41 381.69 267.15 367.38 279.05 354.86 C 278.30 367.66 276.25 380.36 275.35 393.16 C 283.40 376.88 290.90 360.27 299.90 344.49 C 302.28 360.88 305.64 377.34 312.69 392.44 C 313.59 378.55 312.07 364.64 311.79 350.75 C 313.64 337.37 319.69 324.67 328.33 314.33 M 390.65 697.83 C 394.48 707.54 405.93 710.64 415.37 711.32 C 408.52 704.79 399.68 700.47 390.65 697.83 M 362.89 699.14 C 378.11 712.96 397.46 724.95 418.82 723.38 C 418.28 721.80 416.57 721.34 415.29 720.60 C 402.16 714.02 388.60 708.34 374.86 703.18 C 370.89 701.75 367.05 699.89 362.89 699.14 Z" />
<path fill="#ffffff" opacity="1.00" d=" M 676.52 297.52 C 687.63 302.57 698.39 309.32 705.82 319.21 C 715.34 331.25 719.50 346.26 726.04 359.90 C 732.49 343.13 726.90 325.24 722.57 308.72 C 728.76 313.49 733.55 319.81 737.62 326.42 C 746.11 340.34 749.88 356.36 754.71 371.76 C 756.74 357.56 757.13 343.19 757.57 328.88 C 761.84 340.66 765.27 352.78 767.59 365.11 C 768.88 371.52 769.03 378.09 770.27 384.51 C 769.13 390.45 768.89 396.51 768.30 402.52 C 779.85 391.76 788.09 378.04 794.99 363.98 C 807.46 358.35 821.11 355.21 834.59 352.73 C 840.10 351.93 845.62 350.77 851.20 350.62 C 860.12 352.70 869.35 352.96 878.35 354.66 C 869.45 356.66 860.37 357.79 851.40 359.45 C 860.91 361.09 870.59 361.28 880.17 362.34 C 875.39 364.60 870.43 366.45 865.65 368.70 C 875.31 370.64 885.21 370.95 894.92 372.66 C 880.84 376.40 866.61 380.27 853.61 386.96 C 859.60 386.23 865.45 384.49 871.48 384.04 C 875.11 383.88 878.70 384.59 882.27 385.23 C 876.91 388.62 871.17 391.35 865.76 394.66 C 874.67 394.95 883.60 394.49 892.51 394.92 C 888.71 397.69 884.56 399.93 880.79 402.73 C 892.08 403.61 903.43 404.01 914.65 405.73 C 893.57 407.77 872.58 412.89 853.65 422.55 C 863.31 421.09 872.87 418.98 882.58 417.85 C 876.66 422.43 869.81 425.64 864.05 430.43 C 878.02 428.02 892.02 425.21 906.27 425.26 C 895.46 431.80 883.56 436.25 872.40 442.10 C 887.30 439.72 902.17 436.78 917.29 436.11 C 906.48 441.80 895.32 446.97 885.29 454.00 C 894.68 452.85 903.81 450.20 913.17 448.86 C 908.63 453.64 903.30 457.61 898.98 462.60 C 906.89 461.17 914.55 458.67 922.40 457.01 C 910.44 468.14 897.36 478.44 888.10 492.11 C 885.16 496.71 881.73 501.31 880.96 506.87 C 877.79 511.96 875.37 517.51 871.59 522.22 C 869.04 522.65 866.50 523.11 863.96 523.57 C 864.83 517.04 866.55 510.66 867.18 504.10 C 863.75 509.13 861.24 514.71 857.83 519.75 C 846.69 537.43 832.48 552.85 818.02 567.81 C 816.12 553.89 813.27 538.52 802.15 528.79 C 790.91 519.41 775.37 516.32 761.10 518.64 C 742.81 521.57 726.38 531.61 713.12 544.24 C 707.18 531.64 698.87 520.20 688.99 510.40 C 708.53 468.57 711.18 419.45 697.40 375.49 C 689.55 350.03 675.68 326.51 657.21 307.30 C 666.76 308.29 675.52 313.16 682.83 319.19 C 694.39 328.55 702.02 341.51 710.41 353.54 C 709.91 346.05 707.20 338.90 703.84 332.26 C 697.05 319.01 686.35 308.48 676.52 297.52 M 787.13 409.70 C 783.40 435.53 775.12 460.54 764.09 484.13 C 762.97 486.61 761.10 489.14 761.85 492.02 C 762.70 494.99 764.89 497.30 766.96 499.51 C 767.03 499.26 767.17 498.77 767.24 498.53 C 782.14 488.39 796.57 476.36 814.50 472.08 C 815.53 475.63 814.69 479.34 814.78 482.96 C 819.67 480.89 824.66 478.92 829.94 478.07 C 841.48 475.90 853.33 478.04 864.29 481.84 C 862.77 472.77 861.79 462.17 854.02 456.04 C 841.43 445.47 824.24 443.83 810.48 435.39 C 801.66 427.83 795.77 417.45 787.13 409.70 Z" />
<path fill="#ffffff" opacity="1.00" d=" M 450.93 320.46 C 457.28 317.43 463.88 314.19 471.05 314.01 C 479.83 314.20 487.36 322.29 487.53 330.96 C 487.94 340.01 482.78 348.56 475.75 353.95 C 476.12 347.42 476.45 340.88 476.75 334.35 C 472.90 338.22 469.57 343.56 463.77 344.50 C 458.69 344.25 454.71 338.50 456.69 333.72 C 458.82 328.89 463.57 326.04 467.75 323.17 C 462.14 322.27 456.55 321.32 450.93 320.46 Z" />
<path fill="#ffffff" opacity="1.00" d=" M 338.85 350.90 C 346.31 334.23 365.17 322.90 383.47 325.74 C 394.74 327.35 404.83 335.00 409.56 345.33 C 418.24 363.01 413.23 387.37 396.06 398.06 C 391.62 400.96 386.69 402.96 381.99 405.39 C 388.36 392.90 391.41 378.55 389.03 364.62 C 383.28 365.66 377.43 369.97 371.54 367.44 C 367.97 364.80 364.78 360.67 364.97 356.00 C 365.11 350.92 366.87 346.08 367.38 341.04 C 360.53 342.63 352.61 343.03 347.37 348.33 C 340.27 355.72 338.28 366.10 334.37 375.23 C 335.26 367.04 335.60 358.60 338.85 350.90 Z" />
<path fill="#ffffff" opacity="1.00" d=" M 593.99 492.83 C 609.91 488.79 626.91 490.85 642.01 497.00 C 658.64 503.61 673.17 514.63 685.52 527.45 C 698.16 541.10 704.98 559.80 704.76 578.35 C 714.43 581.08 724.98 578.70 733.24 573.21 C 743.98 566.15 752.13 555.07 755.29 542.58 C 756.33 540.12 757.24 537.61 758.02 535.06 C 745.82 541.76 733.82 550.24 719.57 551.59 C 730.46 541.93 742.83 533.20 757.05 529.35 C 772.35 525.13 790.45 530.50 799.52 543.91 C 797.75 554.92 795.52 565.94 791.32 576.32 C 786.84 587.65 779.56 597.62 774.83 608.84 C 772.28 614.84 771.20 621.44 771.98 627.94 C 780.68 632.37 790.54 633.23 799.98 635.07 C 801.40 650.08 796.09 664.84 788.52 677.58 C 781.39 690.04 772.16 701.14 764.75 713.42 C 772.01 711.52 779.04 708.85 786.28 706.89 C 779.86 719.89 773.15 733.30 762.32 743.25 C 752.70 752.00 739.59 754.91 727.38 758.11 C 726.59 751.46 726.22 744.76 725.13 738.15 C 713.28 752.80 702.36 768.57 687.68 780.61 C 691.68 769.60 697.33 759.27 701.47 748.32 C 691.88 757.78 683.68 768.64 673.34 777.36 C 668.84 781.49 663.64 784.70 658.68 788.22 C 651.24 786.74 643.80 785.16 636.32 783.92 C 641.87 789.02 648.00 793.46 654.18 797.77 C 649.53 808.89 646.01 821.36 636.45 829.42 C 614.07 848.01 584.56 856.13 555.84 856.60 C 570.34 852.21 585.02 847.85 598.29 840.36 C 606.86 835.50 615.13 829.75 621.60 822.24 C 604.00 827.72 586.92 834.75 569.36 840.35 C 559.38 843.84 549.09 846.26 538.94 849.14 L 538.32 849.00 C 533.20 837.70 523.76 828.49 512.28 823.77 C 505.55 820.87 498.22 819.64 490.92 819.48 C 499.69 825.77 510.19 830.31 516.56 839.42 C 522.65 847.65 522.75 859.12 518.43 868.16 C 512.43 881.01 500.43 890.10 487.60 895.47 C 458.92 907.99 426.23 908.30 396.09 901.37 C 356.92 891.97 320.28 873.19 288.75 848.25 C 252.59 819.55 222.77 782.86 202.14 741.56 C 212.31 747.70 219.40 757.46 225.81 767.21 C 236.02 783.24 249.74 796.56 263.08 809.94 C 286.62 832.74 313.19 852.54 342.30 867.69 C 372.35 883.48 405.80 893.98 440.00 893.69 C 456.49 893.40 473.09 890.28 488.08 883.22 C 466.45 884.93 444.59 887.09 422.97 883.96 C 411.49 882.52 400.48 878.82 389.41 875.61 C 350.23 863.12 316.34 839.06 282.94 815.81 C 284.86 813.88 286.82 811.98 288.80 810.13 C 311.88 832.65 340.93 849.04 372.30 856.63 C 373.85 856.92 375.41 857.18 376.99 857.39 C 372.51 854.18 367.36 852.15 362.63 849.39 C 307.61 819.34 260.00 775.61 226.15 722.78 C 215.29 705.91 204.95 688.20 199.82 668.65 C 211.95 684.17 221.75 701.43 234.57 716.45 C 243.21 726.41 252.53 735.77 261.93 745.00 C 277.02 759.37 294.10 772.69 314.42 778.55 C 324.37 781.06 334.71 783.47 345.02 781.93 C 354.97 780.59 364.46 776.94 373.36 772.40 C 374.62 771.97 376.05 770.65 377.36 771.68 C 386.28 777.56 394.68 785.02 405.30 787.62 C 415.27 789.34 425.42 787.80 435.36 786.61 C 421.43 782.78 407.53 778.49 394.58 772.02 C 408.31 773.65 422.01 777.98 435.96 775.71 C 441.83 774.57 448.22 773.01 452.35 768.35 C 455.52 764.72 458.00 760.57 460.50 756.47 C 445.77 760.86 430.71 765.23 415.20 765.08 C 418.45 763.24 421.76 761.48 425.05 759.71 C 434.49 756.74 442.85 751.03 450.26 744.58 C 458.91 750.55 467.60 759.01 478.93 758.20 C 497.50 757.16 518.51 755.38 531.88 740.75 C 528.73 738.50 525.44 736.44 522.20 734.34 C 525.29 729.96 528.42 725.61 531.55 721.26 C 546.80 727.54 562.13 735.34 579.00 735.52 C 587.13 735.96 595.22 734.47 602.89 731.84 C 607.95 730.01 613.19 728.49 617.86 725.75 C 606.47 725.40 595.11 726.61 583.73 726.66 C 599.72 720.19 616.14 713.67 629.64 702.67 C 621.62 703.51 613.85 705.73 605.91 707.02 C 616.57 698.98 627.10 690.58 635.87 680.44 C 630.33 680.68 624.86 681.66 619.31 681.64 C 626.68 673.68 633.63 665.33 639.85 656.44 C 643.22 658.56 646.63 660.62 649.96 662.82 C 652.31 664.35 654.74 665.76 657.18 667.16 C 654.62 649.08 649.70 630.47 654.45 612.33 C 658.42 598.28 669.99 588.55 680.05 578.75 C 678.32 568.10 675.16 557.71 671.26 547.67 C 669.27 543.06 667.63 538.21 664.56 534.19 C 663.60 541.52 663.22 548.91 662.53 556.27 C 657.48 542.25 651.14 528.25 640.44 517.59 C 634.11 511.25 626.34 506.27 617.76 503.62 C 632.05 529.55 642.01 557.73 647.91 586.73 C 648.10 587.56 648.48 589.23 648.67 590.07 C 646.63 590.74 644.59 591.42 642.54 592.07 C 638.11 571.98 632.70 551.94 623.83 533.30 C 616.64 518.04 606.69 504.00 593.99 492.83 M 386.34 855.42 C 384.41 855.78 381.86 857.17 382.48 859.52 C 384.03 864.24 391.29 864.36 394.26 861.00 C 395.87 856.57 389.81 854.24 386.34 855.42 Z" />
<path fill="#ffffff" opacity="1.00" d=" M 545.78 569.91 C 571.99 576.43 595.98 590.90 614.64 610.34 C 618.11 614.28 622.31 617.90 624.05 623.02 C 626.05 628.80 626.15 635.00 627.33 640.97 C 620.26 633.86 614.46 625.65 607.82 618.17 C 601.00 610.30 592.07 603.69 581.52 602.20 C 570.80 590.20 558.85 579.30 545.78 569.91 Z" />
<path fill="#ffffff" opacity="1.00" d=" M 222.40 741.31 C 226.88 744.57 230.18 749.10 233.87 753.17 C 240.67 761.39 247.33 769.88 252.33 779.34 C 241.71 771.39 233.62 760.53 226.66 749.36 C 225.05 746.78 223.50 744.15 222.40 741.31 Z" />
<path fill="#ffffff" opacity="1.00" d=" M 258.21 786.11 C 266.44 791.07 273.79 797.38 281.97 802.44 C 279.82 804.78 277.54 806.99 275.12 809.06 C 269.26 801.59 263.21 794.19 258.21 786.11 Z" />
</g>
<g id="#181835ff">
<path fill="#181835" opacity="1.00" d=" M 377.63 63.76 C 405.42 48.94 437.80 41.84 469.14 46.40 C 506.04 52.12 537.30 84.87 539.61 122.42 C 555.73 114.04 575.11 112.14 592.53 117.38 C 604.51 120.91 615.36 128.17 623.06 138.03 C 644.00 163.45 641.60 204.29 618.69 227.70 C 607.67 238.08 592.80 243.18 578.12 245.65 C 551.57 250.20 524.18 248.23 497.98 255.03 C 482.74 258.94 467.92 266.51 457.85 278.87 C 452.97 285.40 451.93 293.88 451.96 301.80 C 462.75 301.21 474.33 299.39 484.40 304.47 C 491.04 308.31 496.71 314.48 498.62 322.06 C 500.67 329.27 500.10 336.89 498.91 344.20 C 522.18 338.31 547.18 338.64 570.05 346.14 C 586.90 351.62 602.36 361.61 613.73 375.27 C 625.13 388.48 631.12 405.75 632.17 423.04 C 633.20 436.17 631.27 449.39 627.69 462.03 C 614.15 451.76 599.50 441.00 581.98 439.60 C 563.30 438.74 544.76 443.33 527.62 450.49 C 503.56 460.50 481.74 474.93 458.87 487.26 C 474.04 510.19 499.83 525.10 526.89 528.76 C 534.92 529.72 543.05 530.58 551.12 529.59 C 563.87 528.29 576.14 524.07 588.92 522.99 C 588.33 532.48 581.84 540.17 574.48 545.56 C 568.05 550.52 561.03 554.71 554.94 560.12 C 576.00 561.37 597.77 559.48 617.23 550.81 C 610.58 529.92 596.03 513.03 585.61 494.05 C 592.63 484.45 605.05 481.98 616.15 480.79 C 635.89 478.27 655.19 485.94 671.86 495.86 C 689.33 460.05 691.15 417.84 680.20 379.82 C 671.05 347.43 653.09 317.61 628.74 294.38 C 639.35 280.20 653.47 267.90 670.59 262.50 C 690.43 256.57 712.21 257.85 731.32 265.78 C 766.06 279.85 793.01 313.90 794.94 351.85 C 830.66 336.87 870.21 329.02 908.85 334.68 C 921.36 336.57 933.68 339.83 945.35 344.76 C 957.19 349.96 966.70 360.94 968.82 373.87 C 969.63 377.76 969.13 381.74 968.99 385.66 C 972.81 390.01 976.00 395.07 977.14 400.83 C 979.11 409.19 977.30 418.02 973.50 425.60 C 976.79 436.08 980.62 448.42 974.35 458.57 C 945.76 464.58 922.05 483.65 902.74 504.72 C 883.93 527.21 873.84 556.37 851.25 575.82 C 855.69 584.07 861.06 593.09 858.79 602.85 C 857.10 616.11 848.01 626.44 841.77 637.74 C 839.97 640.56 839.62 643.93 838.77 647.10 C 836.02 657.67 831.41 667.68 825.79 677.02 C 829.93 704.21 819.38 732.73 799.70 751.70 C 789.36 762.03 776.09 769.16 762.05 773.00 C 750.62 775.79 738.75 775.13 727.11 774.49 C 714.80 799.79 689.78 815.87 677.03 840.88 C 668.34 856.98 652.49 867.64 636.29 875.21 C 603.12 890.15 565.64 893.51 529.81 888.86 C 506.68 911.37 473.50 920.26 441.92 920.51 C 423.58 921.04 405.35 917.94 387.58 913.59 C 320.83 897.03 261.45 855.50 219.88 801.09 C 194.36 767.74 175.38 729.28 165.26 688.49 C 156.77 653.84 154.77 617.56 159.50 582.19 C 160.73 571.70 163.65 561.49 164.86 550.99 C 166.63 537.36 167.26 523.59 169.87 510.07 C 180.15 451.98 205.64 397.32 239.45 349.26 C 211.12 304.80 202.31 247.52 219.28 197.27 C 226.49 176.42 237.32 155.78 255.15 142.11 C 264.70 135.09 275.92 129.66 287.93 129.09 C 294.54 128.89 301.18 128.88 307.77 129.54 C 324.77 102.01 349.07 78.98 377.63 63.76 M 426.01 62.96 C 395.60 69.04 368.21 85.77 345.95 106.97 C 335.33 117.52 326.05 129.36 317.84 141.87 C 307.27 157.71 298.72 174.76 289.52 191.39 C 289.52 174.41 293.42 157.69 298.78 141.66 C 282.83 142.26 266.78 148.04 255.17 159.20 C 248.43 165.53 243.92 173.75 240.09 182.06 C 233.03 197.40 229.15 214.13 228.19 230.97 C 226.39 263.71 235.08 296.69 251.50 324.98 C 266.32 299.49 288.27 277.89 314.91 264.99 C 330.42 257.58 346.92 252.05 363.93 249.41 C 382.82 246.64 402.72 247.38 420.59 254.59 C 389.92 252.23 358.52 257.45 330.72 270.77 C 306.52 282.26 284.86 300.10 270.95 323.17 C 282.70 314.97 294.48 306.63 307.54 300.61 C 321.69 294.23 331.15 281.20 344.30 273.31 C 350.52 269.53 357.72 267.62 364.94 267.06 C 372.84 267.15 379.49 272.00 385.69 276.35 C 387.16 277.63 389.20 277.18 391.00 277.28 C 408.15 276.99 425.77 279.02 441.39 286.53 C 442.53 282.35 443.71 278.18 444.87 274.00 C 439.86 268.92 434.53 264.17 429.65 258.97 C 438.66 258.75 447.41 261.27 455.79 264.35 C 475.29 246.48 502.12 239.68 527.85 237.43 C 546.65 235.13 565.83 234.08 583.95 228.13 C 597.76 223.57 610.80 215.23 618.84 202.89 C 628.02 188.34 628.46 168.84 620.31 153.74 C 615.03 143.81 605.68 136.36 595.10 132.73 C 578.96 127.05 560.84 129.28 545.55 136.46 C 539.51 139.27 535.80 145.11 532.63 150.70 C 526.96 160.95 520.98 171.31 512.15 179.20 C 500.22 190.56 483.26 197.28 466.74 194.42 C 473.79 190.25 481.10 186.51 487.88 181.88 C 503.24 171.77 515.10 156.23 520.40 138.59 C 524.51 124.98 523.96 109.63 517.12 96.99 C 508.81 81.30 493.65 69.96 476.96 64.45 C 460.58 58.93 442.77 59.69 426.01 62.96 M 636.22 292.09 C 643.26 297.08 649.56 303.28 657.21 307.30 C 675.68 326.51 689.55 350.03 697.40 375.49 C 711.18 419.45 708.53 468.57 688.99 510.40 C 698.87 520.20 707.18 531.64 713.12 544.24 C 726.38 531.61 742.81 521.57 761.10 518.64 C 775.37 516.32 790.91 519.41 802.15 528.79 C 813.27 538.52 816.12 553.89 818.02 567.81 C 814.64 577.51 812.81 587.67 809.86 597.50 C 822.17 603.90 832.38 614.22 838.59 626.64 C 842.08 617.86 847.42 609.61 848.63 600.07 C 848.89 595.95 849.22 591.14 846.21 587.87 C 842.03 582.81 835.03 582.24 829.69 579.08 C 848.10 563.94 861.71 543.74 871.59 522.22 C 875.37 517.51 877.79 511.96 880.96 506.87 C 884.17 503.72 886.65 499.93 889.70 496.64 C 909.07 473.97 933.63 454.64 962.55 446.05 C 962.25 438.88 960.50 431.11 955.00 426.09 C 951.73 422.83 947.10 421.73 942.89 420.25 C 923.47 414.02 902.47 414.04 882.58 417.85 C 872.87 418.98 863.31 421.09 853.65 422.55 C 872.58 412.89 893.57 407.77 914.65 405.73 C 930.65 406.00 946.39 410.20 961.19 416.11 C 963.36 409.15 962.22 401.17 957.59 395.45 C 953.18 389.44 945.84 386.95 939.11 384.54 C 917.77 377.43 894.64 378.57 872.81 382.60 C 872.48 382.96 871.81 383.68 871.48 384.04 C 865.45 384.49 859.60 386.23 853.61 386.96 C 866.61 380.27 880.84 376.40 894.92 372.66 C 914.90 370.71 935.50 371.72 954.72 377.90 C 951.02 369.53 946.13 360.62 937.31 356.83 C 910.04 345.48 879.23 344.55 850.56 350.47 L 851.20 350.62 C 845.62 350.77 840.10 351.93 834.59 352.73 C 821.11 355.21 807.46 358.35 794.99 363.98 C 788.09 378.04 779.85 391.76 768.30 402.52 C 768.89 396.51 769.13 390.45 770.27 384.51 C 781.49 351.43 767.18 311.94 738.01 292.93 C 725.93 284.42 711.75 278.88 697.06 277.15 C 675.88 274.48 653.67 279.70 636.22 292.09 M 328.33 314.33 C 319.69 324.67 313.64 337.37 311.79 350.75 C 309.32 349.01 306.94 347.15 304.61 345.24 C 306.22 333.37 308.68 321.63 311.80 310.07 C 299.22 317.82 286.12 325.09 275.45 335.45 C 272.05 338.72 269.41 342.66 266.11 346.03 L 266.02 346.40 C 238.08 376.95 219.32 414.88 206.86 454.10 C 200.98 473.04 196.12 492.35 193.09 511.96 C 189.09 539.66 191.02 568.14 198.26 595.16 C 203.28 612.81 209.43 630.18 217.05 646.88 C 231.57 678.36 251.61 708.27 279.61 729.29 C 293.95 740.42 310.56 749.54 328.83 751.74 C 335.01 752.83 341.90 751.91 346.90 747.88 C 349.68 745.44 351.64 741.57 350.76 737.83 C 348.04 719.93 337.15 704.97 329.89 688.78 C 337.84 693.61 343.96 700.86 351.74 705.92 C 361.75 716.79 373.36 726.32 386.36 733.41 C 399.62 740.48 415.48 744.49 430.29 740.28 C 433.99 739.37 437.19 735.95 436.78 731.97 C 436.33 725.43 432.68 719.66 429.26 714.27 L 429.33 714.07 C 423.07 706.96 417.67 699.16 412.39 691.31 C 428.38 698.32 442.10 709.46 457.70 717.23 C 467.97 722.50 479.37 726.24 491.03 725.98 C 499.40 725.31 506.53 719.81 512.46 714.34 C 512.59 707.49 512.44 700.63 512.51 693.78 C 530.63 692.78 549.66 696.10 566.92 688.84 C 586.64 680.95 606.76 672.17 622.11 657.05 C 624.86 654.15 627.85 651.37 629.89 647.91 C 631.19 645.26 628.94 642.83 627.33 640.97 C 626.15 635.00 626.05 628.80 624.05 623.02 C 622.31 617.90 618.11 614.28 614.64 610.34 C 595.98 590.90 571.99 576.43 545.78 569.91 C 558.85 579.30 570.80 590.20 581.52 602.20 C 587.69 612.53 594.92 622.66 597.56 634.62 C 599.09 642.46 599.10 651.07 595.24 658.28 C 590.09 668.24 579.31 674.90 568.07 674.99 C 555.03 675.89 542.86 670.22 531.47 664.58 C 515.47 684.40 487.40 692.65 462.98 686.11 C 455.81 684.32 449.18 680.93 442.80 677.30 C 424.39 666.77 408.38 652.29 395.46 635.51 C 372.77 606.11 359.13 570.34 353.70 533.76 C 335.65 533.90 317.51 529.84 301.38 521.68 C 300.31 521.05 299.10 520.77 297.88 520.98 C 287.44 512.52 276.36 503.56 271.21 490.72 C 265.95 479.55 266.13 466.31 270.60 454.92 C 274.63 444.16 282.47 435.09 292.06 428.88 C 310.75 416.50 334.09 413.05 356.07 415.07 C 365.90 415.72 375.00 421.58 385.03 419.89 C 383.69 421.61 382.50 423.45 381.23 425.23 C 353.29 417.89 321.56 421.62 298.05 439.13 C 287.37 446.80 279.27 459.56 280.45 473.07 C 281.98 485.48 288.89 496.73 297.89 505.19 C 311.76 518.02 330.40 524.92 349.10 526.24 C 357.57 526.95 366.59 527.36 373.96 532.10 C 400.21 549.14 429.99 561.16 461.09 565.35 C 481.18 567.80 501.98 568.07 521.58 562.34 C 538.47 557.43 554.43 549.24 568.29 538.42 C 549.93 540.81 531.16 541.67 512.87 538.21 C 497.45 535.47 482.60 529.34 470.00 520.01 C 460.75 512.93 454.01 503.28 445.64 495.28 C 442.67 494.87 439.71 494.43 436.75 494.00 C 447.17 505.33 460.57 513.98 468.79 527.26 C 473.16 533.55 476.03 540.91 481.40 546.49 C 499.66 552.35 519.16 550.23 538.03 550.88 C 524.05 554.69 509.39 555.42 494.98 554.85 C 468.25 553.48 442.19 546.24 417.30 536.74 C 386.25 524.21 355.24 507.89 333.78 481.46 C 329.90 485.51 326.46 489.96 322.62 494.06 C 319.84 478.75 332.61 462.89 348.00 461.76 C 352.54 461.50 356.98 463.06 360.80 465.44 C 354.86 467.75 348.84 469.86 342.92 472.22 C 348.32 481.95 358.32 488.21 368.82 491.18 C 382.90 495.13 398.04 494.46 412.02 490.38 C 450.88 480.06 484.15 456.47 520.75 440.72 C 536.41 433.93 552.85 428.63 569.83 426.51 C 589.24 424.53 608.35 431.79 624.28 442.42 C 623.37 430.93 621.40 419.46 617.49 408.59 C 612.24 393.14 602.57 379.36 590.25 368.72 C 574.69 355.57 554.31 348.45 533.98 348.46 C 531.94 348.46 529.86 348.33 527.92 349.00 C 538.96 352.93 550.01 357.04 560.28 362.75 C 572.88 369.67 584.52 379.30 591.27 392.21 C 576.58 378.70 559.26 367.75 540.01 362.12 C 520.62 356.13 499.67 356.19 480.04 360.99 C 462.19 365.49 445.88 374.50 430.74 384.78 C 416.31 394.65 402.65 405.57 388.67 416.05 C 387.47 414.85 386.28 413.66 385.08 412.47 C 366.89 419.32 345.12 411.73 334.14 395.94 C 328.11 386.79 323.89 376.09 324.02 364.99 C 324.29 344.58 335.97 324.91 353.37 314.40 C 363.08 308.42 374.86 305.81 386.18 307.45 C 376.96 311.51 367.26 314.37 357.98 318.30 C 367.31 317.81 376.67 315.48 386.02 317.05 C 393.05 318.24 399.87 321.07 405.35 325.69 C 409.98 329.67 413.99 334.31 417.70 339.14 C 418.48 340.33 419.46 341.45 419.81 342.87 C 423.32 355.88 423.87 369.89 420.00 382.89 C 428.67 376.62 437.72 370.91 446.83 365.30 C 439.95 356.91 435.24 346.62 434.14 335.79 C 437.08 327.92 440.75 320.26 445.94 313.61 C 431.26 316.17 415.22 314.61 402.64 306.07 C 413.67 307.09 425.34 311.38 436.00 306.27 C 412.86 296.04 386.95 293.08 361.88 295.13 C 348.62 296.50 336.76 304.27 328.33 314.33 M 450.93 320.46 C 456.55 321.32 462.14 322.27 467.75 323.17 C 463.57 326.04 458.82 328.89 456.69 333.72 C 454.71 338.50 458.69 344.25 463.77 344.50 C 469.57 343.56 472.90 338.22 476.75 334.35 C 476.45 340.88 476.12 347.42 475.75 353.95 C 482.78 348.56 487.94 340.01 487.53 330.96 C 487.36 322.29 479.83 314.20 471.05 314.01 C 463.88 314.19 457.28 317.43 450.93 320.46 M 338.85 350.90 C 335.60 358.60 335.26 367.04 334.37 375.23 C 338.28 366.10 340.27 355.72 347.37 348.33 C 352.61 343.03 360.53 342.63 367.38 341.04 C 366.87 346.08 365.11 350.92 364.97 356.00 C 364.78 360.67 367.97 364.80 371.54 367.44 C 377.43 369.97 383.28 365.66 389.03 364.62 C 391.41 378.55 388.36 392.90 381.99 405.39 C 386.69 402.96 391.62 400.96 396.06 398.06 C 413.23 387.37 418.24 363.01 409.56 345.33 C 404.83 335.00 394.74 327.35 383.47 325.74 C 365.17 322.90 346.31 334.23 338.85 350.90 M 593.99 492.83 C 606.69 504.00 616.64 518.04 623.83 533.30 C 632.70 551.94 638.11 571.98 642.54 592.07 C 644.59 591.42 646.63 590.74 648.67 590.07 C 648.48 589.23 648.10 587.56 647.91 586.73 C 649.98 587.07 652.07 587.41 654.16 587.76 C 647.38 597.85 640.67 608.69 639.71 621.14 C 638.35 632.80 643.58 643.73 647.55 654.36 C 648.45 657.14 649.97 659.83 649.96 662.82 C 646.63 660.62 643.22 658.56 639.85 656.44 C 633.63 665.33 626.68 673.68 619.31 681.64 C 609.02 689.46 597.55 695.77 585.58 700.63 C 567.78 707.86 547.78 710.58 528.95 706.02 C 527.19 711.41 525.94 717.02 523.24 722.05 C 519.44 729.79 511.08 733.85 503.21 736.26 C 486.55 740.77 468.91 736.16 453.82 728.71 C 452.61 733.99 451.44 739.28 450.26 744.58 C 442.85 751.03 434.49 756.74 425.05 759.71 C 419.74 759.62 414.39 760.07 409.11 759.28 C 392.69 757.07 377.52 748.99 365.07 738.27 C 364.08 749.20 358.50 760.67 348.01 765.25 C 334.99 770.44 320.16 769.58 307.13 764.89 C 289.86 758.74 275.08 747.44 261.31 735.63 C 245.42 721.69 231.83 705.24 220.60 687.37 C 199.46 653.73 186.23 615.72 177.54 577.12 C 173.96 592.12 172.56 607.58 172.24 622.99 C 172.01 664.18 182.31 705.45 202.14 741.56 C 222.77 782.86 252.59 819.55 288.75 848.25 C 320.28 873.19 356.92 891.97 396.09 901.37 C 426.23 908.30 458.92 907.99 487.60 895.47 C 500.43 890.10 512.43 881.01 518.43 868.16 C 522.75 859.12 522.65 847.65 516.56 839.42 C 510.19 830.31 499.69 825.77 490.92 819.48 C 498.22 819.64 505.55 820.87 512.28 823.77 C 523.76 828.49 533.20 837.70 538.32 849.00 L 538.94 849.14 L 538.53 849.74 C 538.33 856.28 539.18 862.86 539.29 869.43 C 562.48 871.82 586.27 871.23 608.81 864.83 C 622.75 860.77 636.54 855.09 647.80 845.74 C 655.76 839.10 662.24 830.18 664.41 819.93 C 665.45 811.23 659.48 803.94 654.18 797.77 C 648.00 793.46 641.87 789.02 636.32 783.92 C 643.80 785.16 651.24 786.74 658.68 788.22 C 658.51 788.44 658.17 788.89 658.00 789.12 C 666.32 792.76 673.46 798.51 680.05 804.66 C 697.16 792.02 713.17 777.41 724.84 759.49 C 739.30 763.28 755.03 761.17 768.17 754.12 C 791.48 741.65 807.64 716.90 810.09 690.63 C 801.36 695.32 792.47 699.83 783.02 702.91 C 792.48 684.19 809.90 670.85 818.63 651.69 C 821.65 645.01 824.06 637.36 821.68 630.08 C 818.53 619.63 809.38 612.30 799.96 607.57 C 794.96 613.55 790.33 620.93 782.23 622.91 C 790.24 607.59 799.27 592.36 802.63 575.18 C 804.82 564.74 803.80 553.69 799.52 543.91 C 790.45 530.50 772.35 525.13 757.05 529.35 C 742.83 533.20 730.46 541.93 719.57 551.59 C 718.44 551.81 717.35 552.24 716.27 552.60 C 716.95 558.58 717.56 564.57 718.37 570.54 C 732.55 564.10 745.26 554.50 755.29 542.58 C 752.13 555.07 743.98 566.15 733.24 573.21 C 724.98 578.70 714.43 581.08 704.76 578.35 C 704.98 559.80 698.16 541.10 685.52 527.45 C 673.17 514.63 658.64 503.61 642.01 497.00 C 626.91 490.85 609.91 488.79 593.99 492.83 M 380.72 508.33 C 406.82 522.03 433.80 534.66 462.53 541.77 C 455.42 525.96 445.09 511.72 432.88 499.45 C 416.10 505.23 398.40 507.72 380.72 508.33 M 365.66 533.06 C 373.24 575.58 393.89 616.67 427.15 644.80 C 440.54 656.14 456.12 665.32 473.24 669.63 C 484.88 672.60 497.99 671.97 508.23 665.20 C 514.88 661.57 518.94 654.38 519.77 646.99 C 521.12 636.21 517.43 625.40 511.33 616.61 C 501.82 601.90 487.81 590.48 472.36 582.45 C 451.81 572.01 428.35 569.35 407.72 559.11 C 392.76 552.04 379.29 542.34 365.66 533.06 M 587.90 571.31 C 603.58 578.25 617.64 588.26 630.92 599.01 C 628.77 587.04 625.57 575.30 621.82 563.74 C 610.76 567.26 599.41 569.85 587.90 571.31 M 474.34 577.15 C 489.51 586.74 505.63 595.81 517.10 609.97 C 523.38 617.48 526.91 626.80 529.60 636.10 C 531.04 640.79 532.97 645.94 537.48 648.50 C 545.79 653.30 555.33 656.39 565.01 655.99 C 569.21 655.78 573.75 655.11 576.97 652.13 C 582.61 647.08 584.47 638.61 582.47 631.44 C 576.05 605.30 554.81 584.09 529.60 575.46 C 524.33 573.30 518.53 574.14 512.99 574.00 C 500.06 574.40 487.25 576.46 474.34 577.15 Z" />
<path fill="#181835" opacity="1.00" d=" M 457.46 298.30 C 464.85 284.98 477.81 273.98 493.17 271.68 C 499.11 270.94 506.19 270.62 510.70 275.31 C 519.02 283.99 514.64 300.71 502.88 303.87 C 499.21 299.33 495.93 294.39 491.54 290.51 C 487.64 288.50 482.99 288.36 478.79 289.38 C 471.19 291.08 464.65 295.53 457.46 298.30 Z" />
<path fill="#181835" opacity="1.00" d=" M 421.00 416.95 C 418.88 409.46 424.46 401.03 431.99 399.42 C 441.98 397.07 452.80 401.28 459.62 408.73 C 451.01 408.51 442.46 407.26 433.88 406.68 C 431.86 409.34 429.85 412.00 427.87 414.69 C 431.15 418.10 434.37 421.58 437.61 425.03 C 431.83 423.26 424.18 422.92 421.00 416.95 Z" />
<path fill="#181835" opacity="1.00" d=" M 790.75 464.73 C 802.36 456.88 817.25 453.70 830.95 457.02 C 841.12 460.12 848.13 468.67 855.42 475.89 C 842.05 472.97 828.21 469.16 814.50 472.08 C 796.57 476.36 782.14 488.39 767.24 498.53 C 770.37 484.79 778.97 472.45 790.75 464.73 Z" />
</g>
<g id="#bfdae4ff">
<path fill="#bfdae4" opacity="1.00" d=" M 636.22 292.09 C 653.67 279.70 675.88 274.48 697.06 277.15 C 711.75 278.88 725.93 284.42 738.01 292.93 C 767.18 311.94 781.49 351.43 770.27 384.51 C 769.03 378.09 768.88 371.52 767.59 365.11 C 765.27 352.78 761.84 340.66 757.57 328.88 C 757.13 343.19 756.74 357.56 754.71 371.76 C 749.88 356.36 746.11 340.34 737.62 326.42 C 733.55 319.81 728.76 313.49 722.57 308.72 C 726.90 325.24 732.49 343.13 726.04 359.90 C 719.50 346.26 715.34 331.25 705.82 319.21 C 698.39 309.32 687.63 302.57 676.52 297.52 C 686.35 308.48 697.05 319.01 703.84 332.26 C 707.20 338.90 709.91 346.05 710.41 353.54 C 702.02 341.51 694.39 328.55 682.83 319.19 C 675.52 313.16 666.76 308.29 657.21 307.30 C 649.56 303.28 643.26 297.08 636.22 292.09 Z" />
<path fill="#bfdae4" opacity="1.00" d=" M 275.45 335.45 C 286.12 325.09 299.22 317.82 311.80 310.07 C 308.68 321.63 306.22 333.37 304.61 345.24 C 306.94 347.15 309.32 349.01 311.79 350.75 C 312.07 364.64 313.59 378.55 312.69 392.44 C 305.64 377.34 302.28 360.88 299.90 344.49 C 290.90 360.27 283.40 376.88 275.35 393.16 C 276.25 380.36 278.30 367.66 279.05 354.86 C 267.15 367.38 257.41 381.69 246.98 395.40 C 250.58 383.45 255.59 371.99 260.46 360.52 C 262.35 355.83 265.07 351.43 266.02 346.40 L 266.11 346.03 C 269.41 342.66 272.05 338.72 275.45 335.45 Z" />
<path fill="#bfdae4" opacity="1.00" d=" M 414.90 317.76 C 421.48 323.58 427.71 329.79 434.14 335.79 C 435.24 346.62 439.95 356.91 446.83 365.30 C 437.72 370.91 428.67 376.62 420.00 382.89 C 423.87 369.89 423.32 355.88 419.81 342.87 C 419.46 341.45 418.48 340.33 417.70 339.14 C 418.47 331.92 415.38 324.94 414.90 317.76 Z" />
<path fill="#bfdae4" opacity="1.00" d=" M 850.56 350.47 C 879.23 344.55 910.04 345.48 937.31 356.83 C 946.13 360.62 951.02 369.53 954.72 377.90 C 935.50 371.72 914.90 370.71 894.92 372.66 C 885.21 370.95 875.31 370.64 865.65 368.70 C 870.43 366.45 875.39 364.60 880.17 362.34 C 870.59 361.28 860.91 361.09 851.40 359.45 C 860.37 357.79 869.45 356.66 878.35 354.66 C 869.35 352.96 860.12 352.70 851.20 350.62 L 850.56 350.47 Z" />
<path fill="#bfdae4" opacity="1.00" d=" M 872.81 382.60 C 894.64 378.57 917.77 377.43 939.11 384.54 C 945.84 386.95 953.18 389.44 957.59 395.45 C 962.22 401.17 963.36 409.15 961.19 416.11 C 946.39 410.20 930.65 406.00 914.65 405.73 C 903.43 404.01 892.08 403.61 880.79 402.73 C 884.56 399.93 888.71 397.69 892.51 394.92 C 883.60 394.49 874.67 394.95 865.76 394.66 C 871.17 391.35 876.91 388.62 882.27 385.23 C 878.70 384.59 875.11 383.88 871.48 384.04 C 871.81 383.68 872.48 382.96 872.81 382.60 Z" />
<path fill="#bfdae4" opacity="1.00" d=" M 787.13 409.70 C 795.77 417.45 801.66 427.83 810.48 435.39 C 824.24 443.83 841.43 445.47 854.02 456.04 C 861.79 462.17 862.77 472.77 864.29 481.84 C 853.33 478.04 841.48 475.90 829.94 478.07 C 824.66 478.92 819.67 480.89 814.78 482.96 C 814.69 479.34 815.53 475.63 814.50 472.08 C 828.21 469.16 842.05 472.97 855.42 475.89 C 848.13 468.67 841.12 460.12 830.95 457.02 C 817.25 453.70 802.36 456.88 790.75 464.73 C 778.97 472.45 770.37 484.79 767.24 498.53 C 767.17 498.77 767.03 499.26 766.96 499.51 C 764.89 497.30 762.70 494.99 761.85 492.02 C 761.10 489.14 762.97 486.61 764.09 484.13 C 775.12 460.54 783.40 435.53 787.13 409.70 Z" />
<path fill="#bfdae4" opacity="1.00" d=" M 882.58 417.85 C 902.47 414.04 923.47 414.02 942.89 420.25 C 947.10 421.73 951.73 422.83 955.00 426.09 C 960.50 431.11 962.25 438.88 962.55 446.05 C 933.63 454.64 909.07 473.97 889.70 496.64 C 886.65 499.93 884.17 503.72 880.96 506.87 C 881.73 501.31 885.16 496.71 888.10 492.11 C 897.36 478.44 910.44 468.14 922.40 457.01 C 914.55 458.67 906.89 461.17 898.98 462.60 C 903.30 457.61 908.63 453.64 913.17 448.86 C 903.81 450.20 894.68 452.85 885.29 454.00 C 895.32 446.97 906.48 441.80 917.29 436.11 C 902.17 436.78 887.30 439.72 872.40 442.10 C 883.56 436.25 895.46 431.80 906.27 425.26 C 892.02 425.21 878.02 428.02 864.05 430.43 C 869.81 425.64 876.66 422.43 882.58 417.85 Z" />
<path fill="#bfdae4" opacity="1.00" d=" M 221.09 443.04 C 223.83 437.88 226.47 432.62 230.09 428.00 C 234.12 452.15 240.15 476.59 253.10 497.64 C 253.17 483.16 253.38 468.58 256.45 454.36 C 260.35 468.21 261.55 482.96 268.10 495.98 C 272.98 505.29 280.57 512.75 287.92 520.11 C 290.41 523.21 294.61 520.86 297.88 520.98 C 299.10 520.77 300.31 521.05 301.38 521.68 C 317.51 529.84 335.65 533.90 353.70 533.76 C 359.13 570.34 372.77 606.11 395.46 635.51 C 408.38 652.29 424.39 666.77 442.80 677.30 C 449.18 680.93 455.81 684.32 462.98 686.11 C 487.40 692.65 515.47 684.40 531.47 664.58 C 542.86 670.22 555.03 675.89 568.07 674.99 C 579.31 674.90 590.09 668.24 595.24 658.28 C 599.10 651.07 599.09 642.46 597.56 634.62 C 594.92 622.66 587.69 612.53 581.52 602.20 C 592.07 603.69 601.00 610.30 607.82 618.17 C 614.46 625.65 620.26 633.86 627.33 640.97 C 628.94 642.83 631.19 645.26 629.89 647.91 C 627.85 651.37 624.86 654.15 622.11 657.05 C 606.76 672.17 586.64 680.95 566.92 688.84 C 549.66 696.10 530.63 692.78 512.51 693.78 C 512.44 700.63 512.59 707.49 512.46 714.34 C 506.53 719.81 499.40 725.31 491.03 725.98 C 479.37 726.24 467.97 722.50 457.70 717.23 C 442.10 709.46 428.38 698.32 412.39 691.31 C 406.14 685.65 400.44 679.41 394.98 672.99 C 385.51 661.53 376.63 649.34 370.37 635.80 C 375.75 638.32 380.56 641.88 385.92 644.45 C 380.68 635.23 375.04 626.23 370.26 616.75 C 365.15 607.32 361.29 597.31 356.91 587.55 C 355.84 593.91 355.79 600.39 354.83 606.78 C 344.13 590.19 339.89 570.62 334.47 551.91 C 334.05 576.64 340.43 600.71 345.37 624.74 C 341.87 620.33 339.32 615.29 336.78 610.31 C 327.38 591.33 322.73 570.37 320.73 549.39 C 314.84 548.15 308.94 546.96 303.01 545.94 C 303.54 572.69 307.81 599.18 309.04 625.87 C 305.76 620.78 303.75 615.02 301.63 609.39 C 294.00 587.88 291.97 564.89 291.70 542.21 C 275.94 535.21 260.74 526.65 247.58 515.41 C 242.81 511.50 238.72 506.87 234.16 502.72 C 226.09 538.85 230.44 576.88 242.28 611.67 C 249.09 630.94 257.08 649.89 267.62 667.44 C 275.21 679.87 283.72 691.99 294.45 701.92 C 292.72 694.44 289.81 687.31 287.96 679.86 C 294.99 687.14 301.63 694.77 308.56 702.15 C 309.17 698.33 309.76 694.52 310.37 690.71 C 314.06 693.21 317.54 695.98 320.95 698.85 C 317.94 701.98 314.70 704.87 311.68 707.99 C 317.37 712.67 323.69 716.51 329.45 721.11 C 327.12 721.96 324.75 722.69 322.34 723.27 C 323.41 727.54 324.69 731.76 325.41 736.11 C 305.17 732.59 285.84 723.23 271.04 708.91 C 261.75 700.28 254.96 689.47 247.91 679.03 C 226.47 645.95 211.73 608.63 204.12 569.97 C 195.95 527.36 201.19 481.80 221.09 443.04 Z" />
<path fill="#bfdae4" opacity="1.00" d=" M 617.76 503.62 C 626.34 506.27 634.11 511.25 640.44 517.59 C 651.14 528.25 657.48 542.25 662.53 556.27 C 663.22 548.91 663.60 541.52 664.56 534.19 C 667.63 538.21 669.27 543.06 671.26 547.67 C 675.16 557.71 678.32 568.10 680.05 578.75 C 669.99 588.55 658.42 598.28 654.45 612.33 C 649.70 630.47 654.62 649.08 657.18 667.16 C 654.74 665.76 652.31 664.35 649.96 662.82 C 649.97 659.83 648.45 657.14 647.55 654.36 C 643.58 643.73 638.35 632.80 639.71 621.14 C 640.67 608.69 647.38 597.85 654.16 587.76 C 652.07 587.41 649.98 587.07 647.91 586.73 C 642.01 557.73 632.05 529.55 617.76 503.62 Z" />
<path fill="#bfdae4" opacity="1.00" d=" M 857.83 519.75 C 861.24 514.71 863.75 509.13 867.18 504.10 C 866.55 510.66 864.83 517.04 863.96 523.57 C 866.50 523.11 869.04 522.65 871.59 522.22 C 861.71 543.74 848.10 563.94 829.69 579.08 C 835.03 582.24 842.03 582.81 846.21 587.87 C 849.22 591.14 848.89 595.95 848.63 600.07 C 847.42 609.61 842.08 617.86 838.59 626.64 C 832.38 614.22 822.17 603.90 809.86 597.50 C 812.81 587.67 814.64 577.51 818.02 567.81 C 832.48 552.85 846.69 537.43 857.83 519.75 Z" />
<path fill="#bfdae4" opacity="1.00" d=" M 758.02 535.06 C 757.24 537.61 756.33 540.12 755.29 542.58 C 745.26 554.50 732.55 564.10 718.37 570.54 C 717.56 564.57 716.95 558.58 716.27 552.60 C 717.35 552.24 718.44 551.81 719.57 551.59 C 733.82 550.24 745.82 541.76 758.02 535.06 Z" />
<path fill="#bfdae4" opacity="1.00" d=" M 799.52 543.91 C 803.80 553.69 804.82 564.74 802.63 575.18 C 799.27 592.36 790.24 607.59 782.23 622.91 C 790.33 620.93 794.96 613.55 799.96 607.57 C 809.38 612.30 818.53 619.63 821.68 630.08 C 824.06 637.36 821.65 645.01 818.63 651.69 C 809.90 670.85 792.48 684.19 783.02 702.91 C 792.47 699.83 801.36 695.32 810.09 690.63 C 807.64 716.90 791.48 741.65 768.17 754.12 C 755.03 761.17 739.30 763.28 724.84 759.49 C 713.17 777.41 697.16 792.02 680.05 804.66 C 673.46 798.51 666.32 792.76 658.00 789.12 C 658.17 788.89 658.51 788.44 658.68 788.22 C 663.64 784.70 668.84 781.49 673.34 777.36 C 683.68 768.64 691.88 757.78 701.47 748.32 C 697.33 759.27 691.68 769.60 687.68 780.61 C 702.36 768.57 713.28 752.80 725.13 738.15 C 726.22 744.76 726.59 751.46 727.38 758.11 C 739.59 754.91 752.70 752.00 762.32 743.25 C 773.15 733.30 779.86 719.89 786.28 706.89 C 779.04 708.85 772.01 711.52 764.75 713.42 C 772.16 701.14 781.39 690.04 788.52 677.58 C 796.09 664.84 801.40 650.08 799.98 635.07 C 790.54 633.23 780.68 632.37 771.98 627.94 C 771.20 621.44 772.28 614.84 774.83 608.84 C 779.56 597.62 786.84 587.65 791.32 576.32 C 795.52 565.94 797.75 554.92 799.52 543.91 Z" />
<path fill="#bfdae4" opacity="1.00" d=" M 587.90 571.31 C 599.41 569.85 610.76 567.26 621.82 563.74 C 625.57 575.30 628.77 587.04 630.92 599.01 C 617.64 588.26 603.58 578.25 587.90 571.31 Z" />
<path fill="#bfdae4" opacity="1.00" d=" M 172.24 622.99 C 172.56 607.58 173.96 592.12 177.54 577.12 C 186.23 615.72 199.46 653.73 220.60 687.37 C 231.83 705.24 245.42 721.69 261.31 735.63 C 275.08 747.44 289.86 758.74 307.13 764.89 C 320.16 769.58 334.99 770.44 348.01 765.25 C 358.50 760.67 364.08 749.20 365.07 738.27 C 377.52 748.99 392.69 757.07 409.11 759.28 C 414.39 760.07 419.74 759.62 425.05 759.71 C 421.76 761.48 418.45 763.24 415.20 765.08 C 430.71 765.23 445.77 760.86 460.50 756.47 C 458.00 760.57 455.52 764.72 452.35 768.35 C 448.22 773.01 441.83 774.57 435.96 775.71 C 422.01 777.98 408.31 773.65 394.58 772.02 C 407.53 778.49 421.43 782.78 435.36 786.61 C 425.42 787.80 415.27 789.34 405.30 787.62 C 394.68 785.02 386.28 777.56 377.36 771.68 C 376.05 770.65 374.62 771.97 373.36 772.40 C 364.46 776.94 354.97 780.59 345.02 781.93 C 334.71 783.47 324.37 781.06 314.42 778.55 C 294.10 772.69 277.02 759.37 261.93 745.00 C 252.53 735.77 243.21 726.41 234.57 716.45 C 221.75 701.43 211.95 684.17 199.82 668.65 C 204.95 688.20 215.29 705.91 226.15 722.78 C 260.00 775.61 307.61 819.34 362.63 849.39 C 367.36 852.15 372.51 854.18 376.99 857.39 C 375.41 857.18 373.85 856.92 372.30 856.63 C 340.93 849.04 311.88 832.65 288.80 810.13 C 286.82 811.98 284.86 813.88 282.94 815.81 C 316.34 839.06 350.23 863.12 389.41 875.61 C 400.48 878.82 411.49 882.52 422.97 883.96 C 444.59 887.09 466.45 884.93 488.08 883.22 C 473.09 890.28 456.49 893.40 440.00 893.69 C 405.80 893.98 372.35 883.48 342.30 867.69 C 313.19 852.54 286.62 832.74 263.08 809.94 C 249.74 796.56 236.02 783.24 225.81 767.21 C 219.40 757.46 212.31 747.70 202.14 741.56 C 182.31 705.45 172.01 664.18 172.24 622.99 M 222.40 741.31 C 223.50 744.15 225.05 746.78 226.66 749.36 C 233.62 760.53 241.71 771.39 252.33 779.34 C 247.33 769.88 240.67 761.39 233.87 753.17 C 230.18 749.10 226.88 744.57 222.40 741.31 M 258.21 786.11 C 263.21 794.19 269.26 801.59 275.12 809.06 C 277.54 806.99 279.82 804.78 281.97 802.44 C 273.79 797.38 266.44 791.07 258.21 786.11 Z" />
<path fill="#bfdae4" opacity="1.00" d=" M 585.58 700.63 C 597.55 695.77 609.02 689.46 619.31 681.64 C 624.86 681.66 630.33 680.68 635.87 680.44 C 627.10 690.58 616.57 698.98 605.91 707.02 C 613.85 705.73 621.62 703.51 629.64 702.67 C 616.14 713.67 599.72 720.19 583.73 726.66 C 595.11 726.61 606.47 725.40 617.86 725.75 C 613.19 728.49 607.95 730.01 602.89 731.84 C 595.22 734.47 587.13 735.96 579.00 735.52 C 562.13 735.34 546.80 727.54 531.55 721.26 C 528.42 725.61 525.29 729.96 522.20 734.34 C 525.44 736.44 528.73 738.50 531.88 740.75 C 518.51 755.38 497.50 757.16 478.93 758.20 C 467.60 759.01 458.91 750.55 450.26 744.58 C 451.44 739.28 452.61 733.99 453.82 728.71 C 468.91 736.16 486.55 740.77 503.21 736.26 C 511.08 733.85 519.44 729.79 523.24 722.05 C 525.94 717.02 527.19 711.41 528.95 706.02 C 547.78 710.58 567.78 707.86 585.58 700.63 Z" />
<path fill="#bfdae4" opacity="1.00" d=" M 390.65 697.83 C 399.68 700.47 408.52 704.79 415.37 711.32 C 405.93 710.64 394.48 707.54 390.65 697.83 Z" />
<path fill="#bfdae4" opacity="1.00" d=" M 362.89 699.14 C 367.05 699.89 370.89 701.75 374.86 703.18 C 388.60 708.34 402.16 714.02 415.29 720.60 C 416.57 721.34 418.28 721.80 418.82 723.38 C 397.46 724.95 378.11 712.96 362.89 699.14 Z" />
<path fill="#bfdae4" opacity="1.00" d=" M 351.74 705.92 C 376.00 713.89 397.55 730.62 423.78 732.01 C 425.60 726.09 426.99 720.04 429.26 714.27 C 432.68 719.66 436.33 725.43 436.78 731.97 C 437.19 735.95 433.99 739.37 430.29 740.28 C 415.48 744.49 399.62 740.48 386.36 733.41 C 373.36 726.32 361.75 716.79 351.74 705.92 Z" />
<path fill="#bfdae4" opacity="1.00" d=" M 654.18 797.77 C 659.48 803.94 665.45 811.23 664.41 819.93 C 662.24 830.18 655.76 839.10 647.80 845.74 C 636.54 855.09 622.75 860.77 608.81 864.83 C 586.27 871.23 562.48 871.82 539.29 869.43 C 539.18 862.86 538.33 856.28 538.53 849.74 L 538.94 849.14 C 549.09 846.26 559.38 843.84 569.36 840.35 C 586.92 834.75 604.00 827.72 621.60 822.24 C 615.13 829.75 606.86 835.50 598.29 840.36 C 585.02 847.85 570.34 852.21 555.84 856.60 C 584.56 856.13 614.07 848.01 636.45 829.42 C 646.01 821.36 649.53 808.89 654.18 797.77 Z" />
<path fill="#bfdae4" opacity="1.00" d=" M 386.34 855.42 C 389.81 854.24 395.87 856.57 394.26 861.00 C 391.29 864.36 384.03 864.24 382.48 859.52 C 381.86 857.17 384.41 855.78 386.34 855.42 Z" />
</g>
<g id="#e69b24ff">
<path fill="#e69b24" opacity="1.00" d=" M 527.92 349.00 C 529.86 348.33 531.94 348.46 533.98 348.46 C 554.31 348.45 574.69 355.57 590.25 368.72 C 602.57 379.36 612.24 393.14 617.49 408.59 C 621.40 419.46 623.37 430.93 624.28 442.42 C 608.35 431.79 589.24 424.53 569.83 426.51 C 552.85 428.63 536.41 433.93 520.75 440.72 C 484.15 456.47 450.88 480.06 412.02 490.38 C 398.04 494.46 382.90 495.13 368.82 491.18 C 358.32 488.21 348.32 481.95 342.92 472.22 C 348.84 469.86 354.86 467.75 360.80 465.44 C 356.98 463.06 352.54 461.50 348.00 461.76 C 332.61 462.89 319.84 478.75 322.62 494.06 C 326.46 489.96 329.90 485.51 333.78 481.46 C 355.24 507.89 386.25 524.21 417.30 536.74 C 442.19 546.24 468.25 553.48 494.98 554.85 C 509.39 555.42 524.05 554.69 538.03 550.88 C 519.16 550.23 499.66 552.35 481.40 546.49 C 476.03 540.91 473.16 533.55 468.79 527.26 C 460.57 513.98 447.17 505.33 436.75 494.00 C 439.71 494.43 442.67 494.87 445.64 495.28 C 454.01 503.28 460.75 512.93 470.00 520.01 C 482.60 529.34 497.45 535.47 512.87 538.21 C 531.16 541.67 549.93 540.81 568.29 538.42 C 554.43 549.24 538.47 557.43 521.58 562.34 C 501.98 568.07 481.18 567.80 461.09 565.35 C 429.99 561.16 400.21 549.14 373.96 532.10 C 366.59 527.36 357.57 526.95 349.10 526.24 C 330.40 524.92 311.76 518.02 297.89 505.19 C 288.89 496.73 281.98 485.48 280.45 473.07 C 279.27 459.56 287.37 446.80 298.05 439.13 C 321.56 421.62 353.29 417.89 381.23 425.23 C 382.50 423.45 383.69 421.61 385.03 419.89 C 386.12 418.50 387.37 417.25 388.67 416.05 C 402.65 405.57 416.31 394.65 430.74 384.78 C 445.88 374.50 462.19 365.49 480.04 360.99 C 499.67 356.19 520.62 356.13 540.01 362.12 C 559.26 367.75 576.58 378.70 591.27 392.21 C 584.52 379.30 572.88 369.67 560.28 362.75 C 550.01 357.04 538.96 352.93 527.92 349.00 M 421.00 416.95 C 424.18 422.92 431.83 423.26 437.61 425.03 C 434.37 421.58 431.15 418.10 427.87 414.69 C 429.85 412.00 431.86 409.34 433.88 406.68 C 442.46 407.26 451.01 408.51 459.62 408.73 C 452.80 401.28 441.98 397.07 431.99 399.42 C 424.46 401.03 418.88 409.46 421.00 416.95 Z" />
</g>
</svg>
